<svg width="40" height="40" xmlns="http://www.w3.org/2000/svg">
 <title/>

 <g>
  <title>background</title>
  <rect fill="none" id="canvas_background" height="42" width="42" y="-1" x="-1"/>
 </g>
 <g>
  <title>Layer 1</title>
  <ellipse stroke="#004e66" ry="16" rx="16" id="svg_77" cy="19.498702" cx="19.862285" stroke-width="null" fill="#004e66"/>
  <path stroke="#ffffff" fill="#ffffff" id="svg_9" d="m30.330132,18.195384l0.242822,2.189055c-0.431644,-2.91874 -1.055131,-5.814675 -1.87046,-8.665004c-0.047959,-0.205225 -0.119902,-0.410449 -0.215821,-0.592869c-0.095921,-0.228026 -0.263783,-0.410449 -0.455625,-0.570067c-0.239802,-0.18242 -0.551547,-0.273629 -0.863288,-0.273629c-0.455626,0.022801 -0.911251,0.136813 -1.318914,0.342037c-2.637828,1.140134 -5.251674,2.257464 -7.84154,3.466003c-1.05513,-1.436566 -2.01434,-2.918738 -2.877632,-4.469317c-0.19184,-0.342041 -0.383682,-0.661277 -0.623484,-0.980516c-0.095921,-0.136813 -0.239805,-0.250829 -0.359704,-0.364843c-0.143883,-0.114011 -0.311745,-0.18242 -0.503584,-0.205221c-0.095922,-0.022805 -0.191843,-0.022805 -0.311745,-0.022805c-0.335723,0 -0.695427,0.091213 -0.983191,0.273633c-0.311742,0.159618 -0.575524,0.43325 -0.719405,0.729684c-0.071944,0.159618 -0.119902,0.319236 -0.119902,0.478855c0,0.159621 0.023981,0.319239 0.095921,0.456055c0.119899,0.27363 0.263783,0.547262 0.455626,0.775289c0.311741,0.410448 0.743385,0.912105 1.24697,1.55058c0.623486,0.798093 1.222992,1.618988 1.750557,2.462684c0.119903,0.205225 0.239806,0.387644 0.359705,0.592869c-2.158222,1.094527 -4.244502,2.325872 -6.234862,3.671227c-0.335726,0.205224 -0.623487,0.501659 -0.839311,0.820895c-0.167861,0.250828 -0.263782,0.547262 -0.263782,0.866501c0,0.319236 0.095921,0.638472 0.263782,0.912105c0.263783,0.433251 0.575528,0.820895 0.95921,1.185737c0.359704,0.364843 0.767367,0.729686 1.079113,1.071723c1.630655,1.710201 3.309273,3.397594 5.011869,5.062189c0.143883,0.136816 0.287764,0.273633 0.455625,0.410446c0.191842,0.136816 0.407667,0.250831 0.623487,0.296434c0.119902,0.022806 0.239801,0.045607 0.359704,0.045607c0.287764,0 0.551547,-0.068408 0.81533,-0.18242c0.239801,-0.091213 0.455621,-0.228029 0.671445,-0.34204l11.342656,-6.70398c0.263782,-0.136813 0.503584,-0.319236 0.671445,-0.547262c0.191843,-0.273633 0.287764,-0.592869 0.263783,-0.912104c0.00075,-0.007126 0.001217,-0.016368 0.001415,-0.027592c0.000198,-0.011223 0.000126,-0.024432 -0.000195,-0.039486c-0.00032,-0.015059 -0.000892,-0.031963 -0.001701,-0.050586c-0.000807,-0.018623 -0.001851,-0.03896 -0.003111,-0.060884c-0.001266,-0.021924 -0.002745,-0.045431 -0.004429,-0.070387c-0.001684,-0.024958 -0.003569,-0.051368 -0.005641,-0.079095c-0.00207,-0.027726 -0.00433,-0.056769 -0.006757,-0.087c-0.002427,-0.030231 -0.005028,-0.061644 -0.007779,-0.094113c-0.00275,-0.032466 -0.005658,-0.065984 -0.008699,-0.100425c-0.003044,-0.034437 -0.006225,-0.069795 -0.009524,-0.10594c-0.003303,-0.036142 -0.006726,-0.073073 -0.010254,-0.110657c-0.003528,-0.037582 -0.007159,-0.07582 -0.010881,-0.114578c-0.003719,-0.038757 -0.00753,-0.078038 -0.01141,-0.117704c-0.003882,-0.039666 -0.007836,-0.07972 -0.011845,-0.120026c-0.004013,-0.040308 -0.008076,-0.080871 -0.012184,-0.121556c-0.004104,-0.040685 -0.008249,-0.081492 -0.012418,-0.122288c-0.004169,-0.040794 -0.008362,-0.08158 -0.012562,-0.122218c-0.004199,-0.040641 -0.008406,-0.081137 -0.012602,-0.121356c-0.004196,-0.04022 -0.008386,-0.080162 -0.012548,-0.119696c-0.004162,-0.039531 -0.0083,-0.078653 -0.012394,-0.117231c-0.004098,-0.038583 -0.008151,-0.076618 -0.012146,-0.113978c-0.003995,-0.037364 -0.007936,-0.074049 -0.011798,-0.109924c-0.003862,-0.035878 -0.007653,-0.070946 -0.011352,-0.105073c-0.003698,-0.034126 -0.007304,-0.067311 -0.010809,-0.099422c-0.003501,-0.032112 -0.006893,-0.063146 -0.010165,-0.092975c-0.003272,-0.02983 -0.006419,-0.058451 -0.009429,-0.085732c-0.00301,-0.027284 -0.005877,-0.053225 -0.00859,-0.077691c-0.002714,-0.024469 -0.005274,-0.047463 -0.00766,-0.068853c-0.002383,-0.021388 -0.004598,-0.041172 -0.006624,-0.059214c-0.002024,-0.018042 -0.003862,-0.034349 -0.005494,-0.048779c-0.001633,-0.014434 -0.003061,-0.026994 -0.004268,-0.03755c-0.001211,-0.010555 -0.002195,-0.019108 -0.002946,-0.025522zm-18.701571,-9.143859l0,0l0,0zm14.484067,2.189053c0.335724,-0.159618 0.671446,-0.250828 1.031151,-0.27363c0.167861,0 0.311741,0.045604 0.455625,0.136817c0.119899,0.091209 0.191842,0.205221 0.239801,0.319236c0.07194,0.159617 0.119903,0.319235 0.167862,0.501658c0,0.022802 0,0.045604 0.023981,0.068408c-2.469966,0.957712 -4.89197,2.006633 -7.289996,3.146764c-0.095922,-0.456053 -0.263783,-0.889303 -0.503585,-1.276947c0,-0.022802 -0.023981,-0.022802 -0.023981,-0.045607c1.966382,-0.889303 3.93276,-1.733 5.899142,-2.576699zm-12.973314,-0.228026c-0.263782,-0.296435 -0.503584,-0.615671 -0.719405,-0.934907c-0.071943,-0.09121 -0.119902,-0.205225 -0.167861,-0.319239c-0.023981,-0.068405 -0.047962,-0.159618 -0.047962,-0.228026c0,-0.068409 0.023981,-0.159619 0.047962,-0.205221c0.095918,-0.182424 0.239802,-0.342041 0.431644,-0.433252c0.19184,-0.114014 0.407663,-0.182423 0.623484,-0.182423c0.047962,0 0.095921,0 0.167865,0.022805c0.071939,0.022802 0.167861,0.045604 0.239801,0.091211c0.14388,0.114011 0.263783,0.250827 0.359704,0.387643c0.119899,0.205225 0.263783,0.456053 0.455622,0.752487c0.74339,1.254146 1.942401,3.283583 3.213355,4.879766c0.143881,0.182423 0.311742,0.387645 0.431645,0.592869c0.095921,0.136817 0.167861,0.296435 0.167861,0.456053c0,0.045606 0,0.091213 -0.023981,0.114014c-0.047959,0.159618 -0.167862,0.296435 -0.311742,0.387645c-0.143884,0.114014 -0.335726,0.159618 -0.527565,0.182423l0,0c-0.143884,0 -0.263783,-0.045607 -0.359704,-0.114016c-0.263783,-0.205224 -0.479607,-0.456052 -0.647468,-0.729684c-0.239802,-0.342038 -0.503584,-0.798094 -0.815326,-1.276947c-0.767371,-1.20854 -1.606678,-2.348674 -2.517929,-3.443201zm2.637828,4.925372c0.023981,0.022802 0.047962,0.068408 0.07194,0.09121c0.095921,0.136816 0.191842,0.296434 0.287764,0.410449c0.167861,0.205221 0.359704,0.410446 0.575524,0.547262c0.215824,0.159618 0.479607,0.228026 0.767371,0.228026l0,0c0.335723,0 0.647464,-0.114011 0.911247,-0.296434c0.287764,-0.182419 0.479607,-0.456053 0.575528,-0.752487c0.023978,-0.091209 0.047959,-0.182423 0.047959,-0.296434c0,-0.273633 -0.095921,-0.570067 -0.263783,-0.798093c-0.07194,-0.136817 -0.167861,-0.250828 -0.263782,-0.364843c-0.023982,-0.022802 -0.04796,-0.068408 -0.071941,-0.091209c0.407663,-0.18242 0.791349,-0.364843 1.199012,-0.547263c0,0.022802 0.023981,0.045604 0.023981,0.068408l0,0c0.263783,0.478855 0.431644,1.003315 0.503584,1.550577c0.023982,0.22803 0.047963,0.478857 0.047963,0.706884c0,0.228025 -0.023981,0.456052 -0.095922,0.684078c-0.07194,0.228026 -0.167861,0.433251 -0.335722,0.638475c-0.215825,0.250828 -0.503589,0.456053 -0.839311,0.570067c-0.239802,0.09121 -0.503585,0.136817 -0.767368,0.159618c-0.119902,0.022802 -0.263782,0.022802 -0.383684,0.022802c-0.575525,0 -1.15105,-0.159618 -1.630656,-0.456052c-0.575524,-0.364843 -0.983191,-0.889304 -1.222993,-1.504974c0,-0.022805 -0.023981,-0.022805 -0.023981,-0.045607c-0.023977,-0.022801 -0.047959,-0.045606 -0.07194,-0.091209c0.359704,-0.136816 0.671446,-0.273633 0.95921,-0.433251zm-6.594566,5.746264c-0.095921,-0.114011 -0.167861,-0.228026 -0.215824,-0.342038c-0.119899,-0.182423 -0.167861,-0.387643 -0.167861,-0.61567c0,-0.182423 0.07194,-0.364842 0.167861,-0.52446c0.167862,-0.250831 0.407667,-0.456056 0.671446,-0.615674c1.510756,-1.02612 3.093453,-1.983831 4.700131,-2.850328c0,0 0,0.022801 0,0.022801c0.167861,0.478858 0.455622,0.93491 0.839307,1.299752c-2.0623,1.140131 -4.052663,2.34867 -5.99506,3.62562l0,-0.000003zm20.59903,-0.136813c-0.143884,0.159618 -0.287764,0.273629 -0.479607,0.364843l-11.366636,6.703975c-0.19184,0.114015 -0.383682,0.228027 -0.575524,0.296434c-0.167862,0.068409 -0.335724,0.114016 -0.527566,0.114016c-0.07194,0 -0.119903,0 -0.191843,-0.022805c-0.14388,-0.045604 -0.263782,-0.114012 -0.383681,-0.18242c-0.143884,-0.114015 -0.263783,-0.228026 -0.383686,-0.342041l-0.239802,0.228026l0.239802,-0.228026c-1.702595,-1.664592 -3.357232,-3.329186 -4.987891,-5.039384c-0.407663,-0.410446 -0.863289,-0.843697 -1.270952,-1.254146c1.99036,-1.299749 4.004701,-2.531093 6.090982,-3.694028c0.023981,0.022805 0.07194,0.045606 0.095921,0.068407c0.599506,0.364843 1.294933,0.570068 2.014341,0.570068c0.167861,0 0.311741,0 0.479603,-0.022802c0.311745,-0.045607 0.623487,-0.114014 0.911251,-0.205225c0.455625,-0.159618 0.839307,-0.410448 1.127071,-0.775288c0.21582,-0.250831 0.359704,-0.547265 0.455625,-0.866501c0.071941,-0.273633 0.119899,-0.570067 0.119899,-0.8437c0,-0.228026 -0.023977,-0.410446 -0.023977,-0.592869c2.398022,-1.162932 4.867989,-2.234658 7.361932,-3.192369c0.719409,2.599501 1.270955,5.221807 1.654637,7.866914c0.023981,0.18242 0.047963,0.342038 0.047963,0.524461c0,0.182419 -0.047963,0.364842 -0.167862,0.52446z"/>
  <line stroke-linejoin="round" stroke-linecap="round" stroke-width="0" stroke="#000000" fill="none" id="svg_10" y2="7.932702" y1="7.932702" x2="22.289964" x1="22.289964" class="st1"/>
  <path stroke="#ffffff" transform="rotate(-31.070886611938477 21.799833297729485,21.65151214599609) " id="svg_76" d="m17.885428,19.855804l0.93483,3.521047l1.372821,0c0.01307,0.030734 1.614694,-2.779467 1.614694,-2.779467c0,0 1.601624,2.888262 1.588555,2.857528c0.013069,0.030734 1.38589,0.030734 1.372821,0c0.01307,0.030734 0.96097,-3.599108 0.9479,-3.629843c0.013069,0.030734 -1.000203,0.069765 -1.013272,0.039031c0.013069,0.030734 -0.640655,2.801905 -0.653724,2.77117c0.013069,0.030734 -1.45781,-2.779466 -1.470879,-2.810201c0.045756,0.030734 -1.45781,0.030734 -1.470879,0c-0.084989,0.030734 -1.555868,2.762874 -1.568938,2.73214c0.01307,0.030734 -0.673341,-2.701405 -0.68641,-2.73214c0.01307,0.030734 -1.032889,-0.008296 -0.967517,0.030734z" stroke-width="null" fill="#ffffff"/>
 </g>
</svg>